<svg id="katman_1" data-name="katman 1" xmlns="http://www.w3.org/2000/svg" viewBox="0 0 482.06 243.01"><defs><style>.cls-1,.cls-3{fill:#fff;}.cls-1,.cls-2,.cls-3{stroke:#fff;stroke-miterlimit:10;}.cls-1{stroke-width:0.75px;}.cls-2{fill:none;stroke-width:4px;}</style></defs><path class="cls-1" d="M287.55,235q-6.39,1.24-7.3-3.35t5.35-16.06a87.94,87.94,0,0,1,13.24-17.08L293.17,196a65,65,0,0,1-16.76-8.92,18,18,0,0,1-6.08-10,21.81,21.81,0,0,1,1.53-12.85,46.3,46.3,0,0,1,7.67-12.33,53,53,0,0,1,10.41-9.49A41.44,41.44,0,0,1,304,136.36a18.54,18.54,0,0,1,10.26.51,8.06,8.06,0,0,1,5.31,6.39q1.43,7.29-6.4,19.46a3.77,3.77,0,0,1-2.08,1.6,2.18,2.18,0,0,1-1.57-.22,1.54,1.54,0,0,1-.8-1c-.15-.77.41-1.5,1.69-2.19q8-11.15,6.85-17.15A5.89,5.89,0,0,0,313,139a16.63,16.63,0,0,0-8.4-.2,39.13,39.13,0,0,0-13.24,5.66A60.08,60.08,0,0,0,281.26,153a43.61,43.61,0,0,0-7.89,11.18,18.12,18.12,0,0,0-1.83,11.65q1,5,5.92,9.19a75.56,75.56,0,0,0,17.15,9.51l5.53,2.5a94.51,94.51,0,0,1,14-10.39,46.65,46.65,0,0,1,15.37-6.28l1.21-.24c.47-.09.75.12.85.63.16.77-.24,1.24-1.18,1.43a49.91,49.91,0,0,0-15,5.87,73.41,73.41,0,0,0-13.77,10q8.11,4.77,9.27,10.66,1,5.23-2.74,11a37.1,37.1,0,0,1-9.78,10Q292.41,234,287.55,235Zm.29-1.26q4.47-.87,10.12-4.91a35.84,35.84,0,0,0,9.32-9.67,12.6,12.6,0,0,0,2.1-9.57q-1.23-6.27-8.91-10.2a93.79,93.79,0,0,0-13.52,17q-6,10.49-5.24,14.57c.5,2.56,2.42,3.51,5.74,2.86Z"/><path class="cls-1" d="M342.38,191.64c-2.3.45-3.76-.86-4.36-3.93a25.21,25.21,0,0,1-.13-7.41,34.17,34.17,0,0,1-2.57,5.16q-2.85,5.07-5.41,5.57c-.85.17-1.37-.21-1.56-1.15a13.81,13.81,0,0,1,.74-6.39c1.26-4.4,2.82-6.79,4.7-7.16a3.29,3.29,0,0,1,3.57,1.29,20.48,20.48,0,0,0,.87-2,5.58,5.58,0,0,1,.55-1.24,1.14,1.14,0,0,1,.77-.48c.59-.12.94.08,1,.59l0,.53q-1.89,8.61-1.12,12.57c.46,2.31,1.62,3.27,3.49,2.9q5.37-1.05,17.13-16.25l.23-.17a.46.46,0,0,1,.61.41l-.05.41Q348.13,190.51,342.38,191.64Zm-11.87-3c.34-.07.91-.67,1.7-1.8s1.65-2.49,2.58-4.09,1.7-3.08,2.32-4.44l-1,.46a.8.8,0,0,1-.61-.08.59.59,0,0,0-.48-.1c-.26,0-.76.56-1.49,1.55a18.26,18.26,0,0,0-2.06,3.72,15.14,15.14,0,0,0-1.14,4.68Z"/><path class="cls-1" d="M361.09,188.22a2.4,2.4,0,0,1-1.49-.17,1.54,1.54,0,0,1-.9-1.22q-.07-.37,1.79-17.21c.07-.55.53-.91,1.38-1.07s1.21,0,1.31.54q0,.25-1.32,12.21a54.61,54.61,0,0,1,4.23-8.54q2.55-4.22,4.86-4.67h.66a3.45,3.45,0,0,1,2.73,2.39,31.28,31.28,0,0,1,1.67,5.11,32.31,32.31,0,0,0,1.68,5.19c.65,1.51,1.66,2.13,3,1.86q3.84-.76,12.24-14.76a.53.53,0,0,1,.36-.2.23.23,0,0,1,.31.2l-.06.41q-8.44,14.42-13.05,15.32-2.56.49-3.91-2.29a30.12,30.12,0,0,1-2.12-6.09,23.78,23.78,0,0,0-1.17-3.55c-.4-.94-.87-1.4-1.4-1.39l-.41,0q-2.94.57-7.11,11.09a34.22,34.22,0,0,0-1.64,5.17A1.94,1.94,0,0,1,361.09,188.22Z"/><path class="cls-1" d="M405,179.32c-2.3.45-3.76-.86-4.36-3.93a24.87,24.87,0,0,1-.13-7.41,34.17,34.17,0,0,1-2.57,5.16q-2.87,5.07-5.41,5.57c-.85.17-1.37-.21-1.56-1.15a13.67,13.67,0,0,1,.74-6.39c1.26-4.4,2.82-6.79,4.7-7.16A3.29,3.29,0,0,1,400,165.3a18,18,0,0,0,.86-2,6,6,0,0,1,.56-1.24,1.12,1.12,0,0,1,.77-.48c.59-.12.94.08,1,.59l0,.54q-1.89,8.59-1.11,12.56c.45,2.31,1.62,3.27,3.49,2.9q5.37-1,17.13-16.25l.23-.17a.46.46,0,0,1,.61.41l-.05.41Q410.78,178.19,405,179.32Zm-11.88-3c.34-.07.91-.66,1.71-1.8s1.65-2.49,2.58-4.09,1.7-3.08,2.31-4.44l-1,.46a.8.8,0,0,1-.61-.08.62.62,0,0,0-.49-.1c-.25.05-.75.56-1.48,1.55a17.79,17.79,0,0,0-2.06,3.72,14.86,14.86,0,0,0-1.14,4.68Z"/><path class="cls-1" d="M430.13,193.51a4.21,4.21,0,0,1-1.21,0q-5.35-1.6-6.89-9.41-2.07-10.47,2.28-32.32,2-9.54,3.83-17.62-23,5.87-27.47,9.52l.25.62c.07.34,0,.53-.28.58a1.54,1.54,0,0,1-1.09-.45,2.12,2.12,0,0,1-.85-1.29,1.47,1.47,0,0,1,.54-1.3q4.92-4,29.37-10,2.44-9.9,2-12.33l-.33-1a2.34,2.34,0,0,1,.47-2,2.74,2.74,0,0,1,1.58-1,1.27,1.27,0,0,1,1.69,1.13q.13,2.76-2,12.21l-.57,2.5,13.75-3q17.91-3.52,22.38-3.07c-.06-.26,0-.4.18-.44a.93.93,0,0,1,.77.25,1.19,1.19,0,0,1,.47.7c0,.18-.11.34-.43.49a66.87,66.87,0,0,0-13,1.62q-10.36,2-24.66,5.64Q427,150.82,425,162.23q-2.66,14.86-1,23.18c.8,4.09,2.63,6.17,5.47,6.23a1.34,1.34,0,0,1,1.15,1.1A.58.58,0,0,1,430.13,193.51Z"/><polyline class="cls-2" points="252.54 200 180.33 199.14 180.33 131.06"/><polyline class="cls-2" points="358.02 30.23 358.02 11.53 179.87 11.53 179.87 33.38"/><path class="cls-3" d="M56.79,68.66a9.72,9.72,0,0,1,5,4.74,18.76,18.76,0,0,1,1.36,7.68v28.36l-3,.26-.53-5.27h-.7a10.34,10.34,0,0,1-5.23,4.3,22.87,22.87,0,0,1-8.29,1.32q-9,0-12.2-3.07T30,97.76q0-12.29,14.39-12.29h15V81.08c0-4.09-1.06-6.92-3.17-8.47s-5.41-2.32-9.91-2.32a85.76,85.76,0,0,0-13,1.31l-.61-3.16A97.36,97.36,0,0,1,46.56,67Q53.15,67,56.79,68.66ZM56,103.73q3.42-3,3.43-10.71V88.81H44.45q-6.14,0-8.34,2.19t-2.19,6.85q0,5,2.94,6.94c2,1.28,4.78,1.93,8.47,1.93Q52.53,106.72,56,103.73Z"/><path class="cls-3" d="M127,67.74,107.3,116.28a17.75,17.75,0,0,1-5.79,8q-3.6,2.58-9.57,2.59a30.22,30.22,0,0,1-5.09-.53l.53-3.34a21.58,21.58,0,0,0,4.82.53,12.31,12.31,0,0,0,7-1.84,13,13,0,0,0,4.52-6.23l2.46-6.15h-2.28L87.46,67.74h4l14.84,38.1h1.22l15.37-38.1Z"/><path class="cls-3" d="M181.65,49.57v60l-3,.27-.44-5.09h-.79a10.26,10.26,0,0,1-4.74,4.08,18.82,18.82,0,0,1-7.38,1.27q-8.77,0-12.81-5.09t-4-16.33q0-11.23,4-16.46T165.32,67a22.71,22.71,0,0,1,6.89.92,8.82,8.82,0,0,1,4.52,3.21h1.15V49.57Zm-6.85,54.64q3.07-2.49,3.08-9V82q0-6.66-3-9.17t-9.53-2.5a13.87,13.87,0,0,0-7.55,1.8,10.26,10.26,0,0,0-4.08,5.79,36.52,36.52,0,0,0-1.27,10.75,35.66,35.66,0,0,0,1.27,10.67,10,10,0,0,0,4.08,5.66,14.16,14.16,0,0,0,7.55,1.76Q171.73,106.72,174.8,104.21Z"/><path class="cls-3" d="M214.83,107.59a13,13,0,0,1-5.53-7.11,37.86,37.86,0,0,1-1.58-11.93q0-8.43,2.06-13.13a12.56,12.56,0,0,1,6-6.58A23.16,23.16,0,0,1,225.8,67q6.94,0,10.84,2.46a13,13,0,0,1,5.49,7.15,38.35,38.35,0,0,1,1.58,12q0,8.34-2.06,13.07a12.34,12.34,0,0,1-5.93,6.59,23.06,23.06,0,0,1-9.92,1.84Q218.78,110.05,214.83,107.59Zm19.53-2.67a9.56,9.56,0,0,0,4.22-5.67,38,38,0,0,0,1.18-10.7q0-7.29-1.4-11.2A9.53,9.53,0,0,0,234,71.87a17.55,17.55,0,0,0-8.17-1.58q-5.61,0-8.69,1.8a9.46,9.46,0,0,0-4.25,5.7,38.58,38.58,0,0,0-1.19,10.76q0,7.28,1.4,11.19a9.31,9.31,0,0,0,4.39,5.44,18.56,18.56,0,0,0,8.34,1.54Q231.34,106.72,234.36,104.92Z"/><path class="cls-3" d="M300.15,67.57v42.22q0,9.57-4.39,13.3T283,126.82a50,50,0,0,1-13.43-1.67l.71-3.34a55.89,55.89,0,0,0,12.55,1.67q7.45,0,10.49-3.25t3-9.83v-5.26h-.79q-3.16,4.9-11.77,4.91Q275,110.05,271,105t-4-16.33q0-11.23,4-16.46T283.82,67a20.25,20.25,0,0,1,7.64,1.23,9.19,9.19,0,0,1,4.65,4.3h.62l.44-5.26Zm-6.85,36.64q3.07-2.49,3.08-9V82q0-6.66-3-9.17t-9.53-2.5a13.81,13.81,0,0,0-7.54,1.8,10.23,10.23,0,0,0-4.09,5.79,36.52,36.52,0,0,0-1.27,10.75,35.66,35.66,0,0,0,1.27,10.67,10,10,0,0,0,4.09,5.66,14.09,14.09,0,0,0,7.54,1.76C288.09,106.72,291.26,105.88,293.3,104.21Zm-19-48.41q-3.17-3.06-3.16-8.69V46h3.6v1.58a7.83,7.83,0,0,0,2.5,6.23c1.66,1.47,4.08,2.2,7.24,2.2q9.82,0,9.83-8.43V46h3.51v1.14q0,6.59-3.51,9.18t-9.74,2.59Q277.42,58.88,274.26,55.8Z"/><path class="cls-3" d="M359.4,49.57v60l-3,.27L356,104.7h-.79a10.21,10.21,0,0,1-4.74,4.08,18.82,18.82,0,0,1-7.38,1.27q-8.77,0-12.81-5.09t-4-16.33q0-11.23,4-16.46T343.07,67a22.83,22.83,0,0,1,6.9.92,8.86,8.86,0,0,1,4.52,3.21h1.14V49.57Zm-6.85,54.64q3.07-2.49,3.08-9V82q0-6.66-3-9.17t-9.53-2.5a13.81,13.81,0,0,0-7.54,1.8,10.23,10.23,0,0,0-4.09,5.79,36.52,36.52,0,0,0-1.27,10.75,35.66,35.66,0,0,0,1.27,10.67,10,10,0,0,0,4.09,5.66,14.09,14.09,0,0,0,7.54,1.76Q349.49,106.72,352.55,104.21Z"/><path class="cls-3" d="M418.65,67.74v41.7l-3,.26-.53-6.23h-.79a9.42,9.42,0,0,1-4.56,5.09,18.68,18.68,0,0,1-8.08,1.49q-5.26,0-8.16-1.67a9,9,0,0,1-4.09-5.13,30.54,30.54,0,0,1-1.18-9.53v-26h3.77V93.55a22.89,22.89,0,0,0,1.1,8,6.77,6.77,0,0,0,3.47,3.9,15.58,15.58,0,0,0,6.49,1.1q6,0,8.87-2.94T414.88,93V67.74Z"/><line class="cls-2" x1="358.48" y1="126.42" x2="358.48" y2="146.03"/></svg>