<svg id="katman_1" data-name="katman 1" xmlns="http://www.w3.org/2000/svg" viewBox="0 0 469.54 243.81"><defs><style>.cls-1{fill:#1d1d1b;}.cls-1,.cls-2{stroke:#1d1d1b;stroke-miterlimit:10;}.cls-2{fill:none;stroke-width:4px;}</style></defs><path class="cls-1" d="M280.26,234.72q-6.39,1.26-7.3-3.34t5.35-16.06a87.64,87.64,0,0,1,13.24-17.08l-5.67-2.47a65.42,65.42,0,0,1-16.76-8.92,18.08,18.08,0,0,1-6.08-10A21.81,21.81,0,0,1,264.57,164a46.56,46.56,0,0,1,7.67-12.33,52.15,52.15,0,0,1,10.42-9.49,40.93,40.93,0,0,1,14.07-6.09,18.54,18.54,0,0,1,10.26.51A8.06,8.06,0,0,1,312.3,143q1.43,7.29-6.4,19.45a3.76,3.76,0,0,1-2.08,1.61,2.18,2.18,0,0,1-1.57-.23,1.52,1.52,0,0,1-.8-1c-.15-.77.41-1.5,1.69-2.2q8-11.13,6.86-17.15a5.92,5.92,0,0,0-4.26-4.74,16.63,16.63,0,0,0-8.4-.2,39,39,0,0,0-13.23,5.65A59.82,59.82,0,0,0,274,152.76a43.61,43.61,0,0,0-7.89,11.18,18.11,18.11,0,0,0-1.83,11.65q1,5,5.93,9.19a75.28,75.28,0,0,0,17.14,9.51l5.54,2.5a94.45,94.45,0,0,1,14-10.4,47,47,0,0,1,15.37-6.27l1.21-.24c.47-.09.75.12.86.63.15.76-.25,1.24-1.18,1.42a50.12,50.12,0,0,0-15,5.87,73.45,73.45,0,0,0-13.76,10q8.1,4.78,9.26,10.67,1,5.24-2.74,11a36.93,36.93,0,0,1-9.78,10Q285.12,233.78,280.26,234.72Zm.29-1.25q4.47-.89,10.12-4.91a35.83,35.83,0,0,0,9.32-9.67,12.63,12.63,0,0,0,2.1-9.58q-1.23-6.26-8.91-10.2a94.18,94.18,0,0,0-13.52,17q-6,10.49-5.24,14.57.76,3.84,5.74,2.86Z"/><path class="cls-1" d="M335.09,191.4q-3.45.69-4.36-3.92a25.23,25.23,0,0,1-.13-7.41,33.65,33.65,0,0,1-2.57,5.15q-2.85,5.09-5.41,5.58c-.85.17-1.37-.21-1.55-1.15a13.65,13.65,0,0,1,.73-6.39q1.89-6.62,4.7-7.17a3.3,3.3,0,0,1,3.58,1.29,21.56,21.56,0,0,0,.86-2,5.71,5.71,0,0,1,.55-1.23,1.15,1.15,0,0,1,.77-.49c.59-.11.94.08,1.05.59l0,.54q-1.89,8.61-1.12,12.57c.46,2.3,1.62,3.27,3.5,2.9q5.37-1,17.12-16.25l.23-.18a.46.46,0,0,1,.61.41l-.05.41Q340.84,190.28,335.09,191.4Zm-11.87-3c.34-.07.91-.67,1.7-1.8s1.66-2.49,2.58-4.09,1.7-3.08,2.32-4.44l-1,.45a.76.76,0,0,1-.61-.07.6.6,0,0,0-.48-.11c-.26,0-.76.57-1.49,1.56a17.73,17.73,0,0,0-2.06,3.72,15.15,15.15,0,0,0-1.14,4.67Z"/><path class="cls-1" d="M353.81,188a2.5,2.5,0,0,1-1.5-.17,1.58,1.58,0,0,1-.9-1.22q-.07-.39,1.79-17.22c.07-.54.53-.9,1.38-1.07s1.21,0,1.31.54q0,.27-1.32,12.22a54.61,54.61,0,0,1,4.23-8.54c1.71-2.81,3.32-4.37,4.86-4.67h.66a3.43,3.43,0,0,1,2.73,2.38,31.42,31.42,0,0,1,1.67,5.12,32.18,32.18,0,0,0,1.68,5.18c.65,1.51,1.66,2.13,3,1.86q3.84-.75,12.24-14.75a.58.58,0,0,1,.36-.21.24.24,0,0,1,.31.21l-.06.41q-8.44,14.41-13,15.31-2.57.51-3.91-2.28a30.12,30.12,0,0,1-2.12-6.09,24.34,24.34,0,0,0-1.17-3.56c-.4-.93-.87-1.4-1.4-1.38l-.41-.05q-2.94.57-7.11,11.09a33.87,33.87,0,0,0-1.64,5.17A1.94,1.94,0,0,1,353.81,188Z"/><path class="cls-1" d="M397.74,179.08c-2.3.46-3.76-.85-4.36-3.92a24.89,24.89,0,0,1-.13-7.41,33.65,33.65,0,0,1-2.57,5.15c-1.9,3.39-3.71,5.25-5.41,5.58-.85.17-1.37-.21-1.56-1.15a13.81,13.81,0,0,1,.74-6.39c1.26-4.41,2.82-6.8,4.7-7.17a3.29,3.29,0,0,1,3.57,1.29,19.51,19.51,0,0,0,.87-2,5.26,5.26,0,0,1,.55-1.23,1.15,1.15,0,0,1,.77-.49c.59-.11.94.08,1,.59l0,.54q-1.9,8.61-1.12,12.57c.45,2.3,1.62,3.27,3.49,2.9q5.37-1,17.13-16.25l.23-.18a.46.46,0,0,1,.61.41l0,.41Q403.49,178,397.74,179.08Zm-11.88-3c.35-.07.91-.67,1.71-1.8s1.65-2.49,2.58-4.09a48.13,48.13,0,0,0,2.31-4.44l-1,.45a.76.76,0,0,1-.61-.07.62.62,0,0,0-.49-.11c-.25,0-.75.57-1.48,1.56a17.73,17.73,0,0,0-2.06,3.72,15.15,15.15,0,0,0-1.14,4.67Z"/><path class="cls-1" d="M422.84,193.27a4.14,4.14,0,0,1-1.2,0q-5.37-1.59-6.9-9.4-2.06-10.49,2.28-32.32,2-9.56,3.84-17.62-23,5.85-27.48,9.52l.25.61c.07.35,0,.54-.28.59a1.58,1.58,0,0,1-1.09-.45,2.12,2.12,0,0,1-.85-1.29,1.46,1.46,0,0,1,.54-1.3q4.92-4,29.37-10,2.44-9.9,2-12.34l-.33-1a2.34,2.34,0,0,1,.47-2,2.64,2.64,0,0,1,1.59-1,1.26,1.26,0,0,1,1.68,1.12q.13,2.77-2,12.21l-.57,2.51,13.75-3q17.91-3.52,22.38-3.08c0-.25,0-.4.18-.43a.93.93,0,0,1,.78.25,1.2,1.2,0,0,1,.47.7c0,.17-.12.33-.44.48a67.68,67.68,0,0,0-13,1.62q-10.37,2-24.66,5.65-3.88,17.37-5.89,28.78-2.65,14.87-1,23.18c.8,4.09,2.63,6.17,5.47,6.22a1.35,1.35,0,0,1,1.15,1.11A.58.58,0,0,1,422.84,193.27Z"/><polyline class="cls-2" points="245.25 199.77 173.04 198.91 173.04 130.82"/><polyline class="cls-2" points="350.73 30 350.73 11.3 172.58 11.3 172.58 33.15"/><path class="cls-1" d="M49.5,68.43a9.72,9.72,0,0,1,5,4.74,18.76,18.76,0,0,1,1.36,7.68V109.2l-3,.27-.53-5.27h-.7a10.39,10.39,0,0,1-5.23,4.3,22.84,22.84,0,0,1-8.29,1.32q-9,0-12.2-3.07t-3.25-9.22q0-12.28,14.4-12.29h15V80.85c0-4.09-1.06-6.92-3.16-8.47S43.51,70.05,39,70.05a84.48,84.48,0,0,0-13,1.32l-.62-3.16a97.36,97.36,0,0,1,13.87-1.49Q45.85,66.72,49.5,68.43Zm-.84,35.07q3.44-3,3.43-10.71V88.58H37.16q-6.13,0-8.34,2.19c-1.46,1.46-2.19,3.75-2.19,6.85q0,5,2.94,6.93c2,1.29,4.79,1.93,8.47,1.93Q45.24,106.48,48.66,103.5Z"/><path class="cls-1" d="M119.67,67.51,100,116.05A17.66,17.66,0,0,1,94.22,124q-3.6,2.6-9.57,2.59a30.08,30.08,0,0,1-5.09-.52l.53-3.34a22.27,22.27,0,0,0,4.83.53,12.3,12.3,0,0,0,7-1.85,12.88,12.88,0,0,0,4.52-6.23L98.87,109H96.59L80.17,67.51h4L99.05,105.6h1.23l15.36-38.09Z"/><path class="cls-1" d="M174.36,49.34v60l-3,.26-.44-5.09h-.79a10.1,10.1,0,0,1-4.74,4.08,18.81,18.81,0,0,1-7.38,1.28q-8.78,0-12.81-5.09t-4-16.33q0-11.24,4-16.46T158,66.72a22.71,22.71,0,0,1,6.89.92,8.77,8.77,0,0,1,4.53,3.2h1.14V49.34ZM167.51,104q3.08-2.51,3.08-9V81.73q0-6.67-3-9.18T158,70.05a13.81,13.81,0,0,0-7.54,1.8,10.22,10.22,0,0,0-4.09,5.8,36.48,36.48,0,0,0-1.27,10.75,35.66,35.66,0,0,0,1.27,10.67,10,10,0,0,0,4.09,5.66,14.1,14.1,0,0,0,7.54,1.75C162.3,106.48,165.47,105.65,167.51,104Z"/><path class="cls-1" d="M207.54,107.36a13,13,0,0,1-5.53-7.11,37.88,37.88,0,0,1-1.58-11.94q0-8.43,2.06-13.12a12.52,12.52,0,0,1,6-6.58,23.16,23.16,0,0,1,10-1.89q6.94,0,10.84,2.46a13,13,0,0,1,5.49,7.15,38.33,38.33,0,0,1,1.58,12q0,8.34-2.06,13.08a12.32,12.32,0,0,1-5.93,6.58,23,23,0,0,1-9.92,1.85Q211.49,109.82,207.54,107.36Zm19.53-2.68A9.5,9.5,0,0,0,231.29,99a38.05,38.05,0,0,0,1.18-10.71c0-4.85-.47-8.59-1.4-11.19a9.55,9.55,0,0,0-4.39-5.49,17.65,17.65,0,0,0-8.17-1.58q-5.61,0-8.69,1.8a9.48,9.48,0,0,0-4.25,5.71,38.5,38.5,0,0,0-1.19,10.75q0,7.29,1.41,11.19a9.28,9.28,0,0,0,4.38,5.45,18.58,18.58,0,0,0,8.34,1.53Q224,106.48,227.07,104.68Z"/><path class="cls-1" d="M292.86,67.33v42.22q0,9.57-4.39,13.3t-12.73,3.73a50,50,0,0,1-13.43-1.66l.71-3.34a55.89,55.89,0,0,0,12.55,1.67q7.46,0,10.49-3.25t3-9.83V104.9h-.79q-3.17,4.92-11.77,4.92-8.77,0-12.81-5.09t-4-16.33q0-11.24,4-16.46t12.81-5.22A20.22,20.22,0,0,1,284.17,68a9.19,9.19,0,0,1,4.65,4.3h.62l.44-5.27ZM286,104q3.06-2.51,3.07-9V81.73q0-6.67-3-9.18t-9.53-2.5a13.84,13.84,0,0,0-7.54,1.8,10.22,10.22,0,0,0-4.09,5.8,36.82,36.82,0,0,0-1.27,10.75,36,36,0,0,0,1.27,10.67,10,10,0,0,0,4.09,5.66,14.12,14.12,0,0,0,7.54,1.75Q283,106.48,286,104ZM267,55.57c-2.11-2-3.16-4.94-3.16-8.69V45.74h3.6v1.58a7.83,7.83,0,0,0,2.5,6.23c1.67,1.46,4.08,2.2,7.24,2.2q9.83,0,9.83-8.43V45.74h3.51v1.14q0,6.59-3.51,9.17t-9.74,2.59Q270.13,58.64,267,55.57Z"/><path class="cls-1" d="M352.11,49.34v60l-3,.26-.44-5.09h-.79a10.1,10.1,0,0,1-4.74,4.08,18.81,18.81,0,0,1-7.38,1.28q-8.77,0-12.81-5.09t-4-16.33q0-11.24,4-16.46t12.81-5.22a22.78,22.78,0,0,1,6.9.92,8.79,8.79,0,0,1,4.52,3.2h1.14V49.34ZM345.27,104q3.06-2.51,3.07-9V81.73q0-6.67-3-9.18t-9.53-2.5a13.84,13.84,0,0,0-7.54,1.8,10.22,10.22,0,0,0-4.09,5.8,36.82,36.82,0,0,0-1.27,10.75,36,36,0,0,0,1.27,10.67,10,10,0,0,0,4.09,5.66,14.12,14.12,0,0,0,7.54,1.75Q342.2,106.48,345.27,104Z"/><path class="cls-1" d="M411.36,67.51V109.2l-3,.27-.53-6.24h-.79a9.4,9.4,0,0,1-4.56,5.1,18.68,18.68,0,0,1-8.08,1.49q-5.26,0-8.16-1.67a9,9,0,0,1-4.08-5.14A30.43,30.43,0,0,1,381,93.49v-26h3.78V93.32a22.83,22.83,0,0,0,1.09,8,6.76,6.76,0,0,0,3.47,3.91,15.76,15.76,0,0,0,6.5,1.1c4,0,6.93-1,8.86-2.94s2.9-5.49,2.9-10.58V67.51Z"/><line class="cls-2" x1="351.19" y1="126.18" x2="351.19" y2="145.79"/></svg>