<svg id="katman_1" data-name="katman 1" xmlns="http://www.w3.org/2000/svg" viewBox="0 0 491.31 307.95"><defs><style>.cls-1{fill:#1d1d1b;}.cls-1,.cls-2{stroke:#1d1d1b;stroke-miterlimit:10;}.cls-2{fill:none;stroke-width:4px;}</style></defs><path class="cls-1" d="M285.86,283.38q-6.39,1.26-7.3-3.35t5.34-16a88.1,88.1,0,0,1,13.25-17.08l-5.67-2.47a65.28,65.28,0,0,1-16.76-8.93,18,18,0,0,1-6.08-10,21.82,21.82,0,0,1,1.53-12.85,46.46,46.46,0,0,1,7.67-12.33,52.62,52.62,0,0,1,10.41-9.48,41,41,0,0,1,14.08-6.09,18.63,18.63,0,0,1,10.26.5,8.06,8.06,0,0,1,5.31,6.4q1.43,7.29-6.4,19.45a3.77,3.77,0,0,1-2.08,1.6,2.13,2.13,0,0,1-1.57-.22,1.52,1.52,0,0,1-.8-1c-.15-.76.41-1.49,1.69-2.19q8-11.14,6.85-17.15a5.88,5.88,0,0,0-4.25-4.74,16.74,16.74,0,0,0-8.4-.21,39.13,39.13,0,0,0-13.24,5.66,59.77,59.77,0,0,0-10.13,8.57,43.27,43.27,0,0,0-7.89,11.18,18.08,18.08,0,0,0-1.83,11.64q1,5,5.92,9.2A75.56,75.56,0,0,0,292.92,243l5.53,2.49a95.22,95.22,0,0,1,14-10.39,46.62,46.62,0,0,1,15.37-6.27l1.21-.24c.47-.1.75.11.85.62.15.77-.24,1.25-1.18,1.43a50.17,50.17,0,0,0-15,5.87,73.41,73.41,0,0,0-13.77,10q8.11,4.78,9.27,10.66,1,5.25-2.74,11a37,37,0,0,1-9.78,10Q290.72,282.42,285.86,283.38Zm.29-1.25q4.47-.88,10.12-4.91a36,36,0,0,0,9.32-9.67,12.64,12.64,0,0,0,2.1-9.58q-1.23-6.26-8.91-10.2a94.49,94.49,0,0,0-13.52,17q-6,10.49-5.24,14.58c.5,2.56,2.42,3.51,5.74,2.85Z"/><path class="cls-1" d="M340.69,240.06c-2.3.45-3.76-.85-4.36-3.92a25.23,25.23,0,0,1-.13-7.41,33.65,33.65,0,0,1-2.57,5.15q-2.85,5.07-5.41,5.58c-.85.17-1.37-.22-1.56-1.16a13.78,13.78,0,0,1,.74-6.38c1.26-4.41,2.82-6.8,4.7-7.17a3.29,3.29,0,0,1,3.57,1.29,19.51,19.51,0,0,0,.87-2,5.58,5.58,0,0,1,.55-1.24,1.17,1.17,0,0,1,.77-.48c.59-.12.94.08,1,.59l0,.54Q337,232,337.76,236c.45,2.3,1.62,3.27,3.49,2.9q5.37-1.06,17.13-16.25l.23-.18a.46.46,0,0,1,.61.41l-.05.41Q346.44,238.93,340.69,240.06Zm-11.88-3c.35-.06.92-.66,1.71-1.79s1.65-2.5,2.58-4.1a49.54,49.54,0,0,0,2.32-4.43l-1,.45a.76.76,0,0,1-.61-.08.64.64,0,0,0-.48-.1c-.26.05-.76.57-1.49,1.55a18.09,18.09,0,0,0-2.06,3.73,15.08,15.08,0,0,0-1.14,4.67Z"/><path class="cls-1" d="M359.4,236.65a2.47,2.47,0,0,1-1.49-.17,1.56,1.56,0,0,1-.9-1.22q-.08-.39,1.79-17.22c.07-.55.53-.9,1.38-1.07s1.2,0,1.31.54q0,.26-1.32,12.21a53.65,53.65,0,0,1,4.23-8.53q2.55-4.22,4.86-4.68h.66a3.43,3.43,0,0,1,2.73,2.38,31.42,31.42,0,0,1,1.67,5.12A32.51,32.51,0,0,0,376,229.2c.65,1.51,1.66,2.13,3,1.86q3.84-.75,12.24-14.76a.53.53,0,0,1,.36-.2.23.23,0,0,1,.3.21l-.05.41q-8.44,14.4-13.05,15.31-2.56.51-3.91-2.29a29.82,29.82,0,0,1-2.12-6.08,23.94,23.94,0,0,0-1.17-3.56c-.4-.94-.87-1.4-1.4-1.38l-.41-.06q-2.94.59-7.11,11.1a33.52,33.52,0,0,0-1.64,5.17A2,2,0,0,1,359.4,236.65Z"/><path class="cls-1" d="M403.34,227.74c-2.31.45-3.76-.85-4.36-3.92a24.89,24.89,0,0,1-.13-7.41,34.6,34.6,0,0,1-2.57,5.15q-2.86,5.07-5.41,5.58c-.85.17-1.37-.22-1.56-1.16a13.65,13.65,0,0,1,.74-6.38c1.26-4.41,2.82-6.8,4.7-7.17a3.29,3.29,0,0,1,3.57,1.29,19.19,19.19,0,0,0,.86-2,6,6,0,0,1,.56-1.24,1.15,1.15,0,0,1,.77-.48c.59-.12.94.08,1,.59l0,.54q-1.89,8.61-1.11,12.57c.45,2.3,1.62,3.27,3.49,2.9q5.37-1.06,17.13-16.25l.23-.18a.46.46,0,0,1,.61.41l-.05.41Q409.09,226.6,403.34,227.74Zm-11.88-3c.34-.06.91-.66,1.71-1.79s1.65-2.5,2.58-4.09,1.7-3.08,2.31-4.44l-1,.45a.75.75,0,0,1-.61-.08.67.67,0,0,0-.49-.1c-.25,0-.75.57-1.49,1.55a18.09,18.09,0,0,0-2.05,3.73,14.8,14.8,0,0,0-1.14,4.67Z"/><path class="cls-1" d="M428.44,241.93a4.21,4.21,0,0,1-1.21,0q-5.36-1.6-6.89-9.4-2.07-10.49,2.28-32.32,2-9.56,3.83-17.62-23,5.85-27.47,9.52l.25.61c.07.34,0,.54-.28.59a1.58,1.58,0,0,1-1.09-.45,2.11,2.11,0,0,1-.85-1.3,1.48,1.48,0,0,1,.54-1.3q4.92-4,29.37-10,2.43-9.92,2-12.34l-.33-1a2.32,2.32,0,0,1,.47-2,2.71,2.71,0,0,1,1.58-1.05,1.28,1.28,0,0,1,1.69,1.13q.13,2.76-2,12.21l-.57,2.5,13.76-3q17.91-3.51,22.37-3.07c-.05-.25,0-.4.19-.43a.92.92,0,0,1,.77.24,1.21,1.21,0,0,1,.47.71c0,.17-.11.33-.43.48a66.87,66.87,0,0,0-13,1.62q-10.36,2-24.66,5.65-3.89,17.35-5.89,28.78-2.66,14.86-1,23.17c.8,4.1,2.63,6.17,5.47,6.23a1.35,1.35,0,0,1,1.15,1.1A.58.58,0,0,1,428.44,241.93Z"/><polyline class="cls-2" points="250.84 248.42 178.64 247.56 178.64 179.48"/><polyline class="cls-2" points="356.33 77.8 356.33 31.5 178.18 31.5 178.18 77.8"/><path class="cls-1" d="M55.1,117.09a9.72,9.72,0,0,1,5,4.74,18.76,18.76,0,0,1,1.36,7.68v28.35l-3,.26L58,152.86h-.7a10.39,10.39,0,0,1-5.23,4.3,22.87,22.87,0,0,1-8.29,1.32q-9,0-12.2-3.08c-2.17-2-3.25-5.12-3.25-9.21q0-12.3,14.39-12.29h15v-4.39q0-6.15-3.16-8.47t-9.91-2.33a84.7,84.7,0,0,0-13,1.32L31,116.87a95.88,95.88,0,0,1,13.87-1.49Q51.46,115.38,55.1,117.09Zm-.84,35.07q3.42-3,3.42-10.71v-4.22H42.76c-4.09,0-6.87.74-8.34,2.2s-2.19,3.74-2.19,6.84q0,5,2.94,6.94t8.47,1.93Q50.84,155.14,54.26,152.16Z"/><path class="cls-1" d="M125.27,116.17l-19.66,48.54a17.72,17.72,0,0,1-5.79,7.94q-3.6,2.59-9.57,2.59a29.21,29.21,0,0,1-5.09-.53l.53-3.33a22.11,22.11,0,0,0,4.82.53,12.31,12.31,0,0,0,7-1.85,12.93,12.93,0,0,0,4.52-6.23l2.46-6.14h-2.28L85.77,116.17h4l14.84,38.09h1.22l15.37-38.09Z"/><path class="cls-1" d="M180,98V158l-3,.26-.43-5.09h-.79A10.31,10.31,0,0,1,171,157.2a18.81,18.81,0,0,1-7.38,1.28q-8.77,0-12.81-5.1t-4-16.32q0-11.24,4-16.46t12.81-5.22a22.41,22.41,0,0,1,6.89.92,8.75,8.75,0,0,1,4.52,3.2h1.14V98Zm-6.85,54.64q3.07-2.5,3.07-9V130.39q0-6.67-3-9.18t-9.53-2.5a13.87,13.87,0,0,0-7.55,1.8A10.26,10.26,0,0,0,152,126.3a36.6,36.6,0,0,0-1.27,10.76A35.59,35.59,0,0,0,152,147.72a10,10,0,0,0,4.08,5.66,14.06,14.06,0,0,0,7.55,1.76Q170,155.14,173.11,152.64Z"/><path class="cls-1" d="M213.14,156a13,13,0,0,1-5.53-7.11A37.88,37.88,0,0,1,206,137q0-8.43,2.06-13.12a12.58,12.58,0,0,1,6-6.59,23.32,23.32,0,0,1,10.05-1.88q6.93,0,10.84,2.45a13.05,13.05,0,0,1,5.49,7.16A38.28,38.28,0,0,1,242,137q0,8.34-2.06,13.08a12.36,12.36,0,0,1-5.93,6.58,23,23,0,0,1-9.92,1.85Q217.09,158.48,213.14,156Zm19.53-2.68a9.52,9.52,0,0,0,4.21-5.66A38.09,38.09,0,0,0,238.07,137q0-7.29-1.41-11.19a9.47,9.47,0,0,0-4.38-5.49,17.68,17.68,0,0,0-8.17-1.58q-5.61,0-8.69,1.8a9.45,9.45,0,0,0-4.25,5.71A38.46,38.46,0,0,0,210,137q0,7.29,1.4,11.19a9.28,9.28,0,0,0,4.39,5.44,18.43,18.43,0,0,0,8.34,1.54Q229.65,155.14,232.67,153.34Z"/><path class="cls-1" d="M298.46,116v42.22q0,9.57-4.39,13.3t-12.73,3.73a50,50,0,0,1-13.43-1.67l.71-3.33a55.89,55.89,0,0,0,12.55,1.67q7.45,0,10.49-3.25t3-9.83v-5.27h-.79q-3.16,4.92-11.77,4.92-8.78,0-12.81-5.1t-4-16.32q0-11.24,4-16.46t12.81-5.22a20.47,20.47,0,0,1,7.64,1.22,9.21,9.21,0,0,1,4.65,4.31H295l.44-5.27Zm-6.85,36.65q3.08-2.5,3.08-9V130.39q0-6.67-3-9.18t-9.53-2.5a13.87,13.87,0,0,0-7.55,1.8,10.26,10.26,0,0,0-4.08,5.79,36.6,36.6,0,0,0-1.27,10.76,35.59,35.59,0,0,0,1.27,10.66,10,10,0,0,0,4.08,5.66,14.06,14.06,0,0,0,7.55,1.76C286.4,155.14,289.57,154.31,291.61,152.64Zm-19-48.41q-3.17-3.08-3.16-8.69V94.4H273V96a7.84,7.84,0,0,0,2.51,6.23c1.66,1.46,4.08,2.19,7.24,2.19q9.83,0,9.83-8.42V94.4h3.51v1.14q0,6.58-3.51,9.17t-9.74,2.59Q275.73,107.3,272.57,104.23Z"/><path class="cls-1" d="M357.71,98V158l-3,.26-.44-5.09h-.79a10.21,10.21,0,0,1-4.74,4.08,18.81,18.81,0,0,1-7.38,1.28q-8.78,0-12.81-5.1t-4-16.32q0-11.24,4-16.46t12.81-5.22a22.41,22.41,0,0,1,6.89.92,8.77,8.77,0,0,1,4.53,3.2h1.14V98Zm-6.85,54.64q3.08-2.5,3.08-9V130.39q0-6.67-3-9.18t-9.53-2.5a13.87,13.87,0,0,0-7.55,1.8,10.26,10.26,0,0,0-4.08,5.79,36.6,36.6,0,0,0-1.27,10.76,35.59,35.59,0,0,0,1.27,10.66,10,10,0,0,0,4.08,5.66,14.06,14.06,0,0,0,7.55,1.76C345.65,155.14,348.82,154.31,350.86,152.64Z"/><path class="cls-1" d="M417,116.17v41.69l-3,.26-.53-6.23h-.79a9.36,9.36,0,0,1-4.57,5.09,18.45,18.45,0,0,1-8.07,1.5q-5.26,0-8.16-1.67a9,9,0,0,1-4.09-5.14,30.47,30.47,0,0,1-1.18-9.52v-26h3.77V142a22.82,22.82,0,0,0,1.1,8,6.79,6.79,0,0,0,3.47,3.91,15.76,15.76,0,0,0,6.49,1.09q6,0,8.87-2.94t2.9-10.57V116.17Z"/><line class="cls-2" x1="356.79" y1="174.84" x2="356.79" y2="194.45"/></svg>